<?xml version="1.0" standalone="no"?>
<!DOCTYPE svg PUBLIC "-//W3C//DTD SVG 20010904//EN"
 "http://www.w3.org/TR/2001/REC-SVG-20010904/DTD/svg10.dtd">
<svg version="1.0" xmlns="http://www.w3.org/2000/svg"
 width="800.000000pt" height="800.000000pt" viewBox="0 0 800.000000 800.000000"
 preserveAspectRatio="xMidYMid meet">

<g transform="translate(0.000000,800.000000) scale(0.100000,-0.100000)"
fill="#000000" stroke="none">
<path d="M4001 6228 c-65 -25 -143 -98 -160 -151 l-12 -37 -42 21 c-136 70
-325 5 -396 -136 -31 -63 -39 -157 -17 -221 9 -26 15 -48 13 -49 -1 -1 -17 -7
-35 -15 -17 -7 -51 -30 -73 -52 -118 -115 -122 -303 -10 -418 25 -26 55 -52
65 -57 34 -18 9 -33 -29 -17 -65 27 -137 12 -183 -38 -13 -14 -45 -78 -72
-142 -69 -163 -66 -231 12 -289 50 -36 493 -217 532 -217 92 0 131 39 197 198
43 106 50 133 47 173 -6 59 -35 99 -93 130 -44 23 -45 25 -45 74 -1 32 -9 66
-24 94 l-23 44 35 31 c54 48 92 137 92 216 -1 36 -7 82 -14 102 -13 36 -13 37
18 50 44 18 114 85 138 133 11 22 22 41 23 43 2 2 17 -4 34 -12 91 -48 196
-41 296 19 l57 35 31 -26 c80 -67 178 -92 285 -71 35 7 42 6 42 -7 0 -29 47
-110 84 -145 20 -19 36 -38 36 -43 0 -4 -26 -5 -58 -2 -71 8 -129 -17 -160
-68 -20 -33 -72 -255 -72 -307 0 -38 40 -102 76 -123 36 -21 487 -119 555
-121 52 -1 101 23 132 65 28 37 78 284 68 330 -16 71 -56 111 -125 129 -39 10
-42 13 -54 62 l-12 51 35 36 c111 114 107 305 -8 418 -59 58 -123 84 -205 84
-37 0 -79 -5 -94 -11 -23 -9 -28 -8 -28 5 0 8 -11 39 -25 69 -79 166 -303 218
-448 103 l-37 -29 -46 40 c-82 72 -196 90 -303 49z m175 -137 c47 -21 70 -50
85 -104 24 -91 -51 -187 -146 -187 -143 0 -207 170 -102 268 46 43 102 51 163
23z m473 -29 c67 -49 88 -127 55 -198 -32 -67 -125 -102 -194 -74 -44 18 -87
72 -95 119 -21 125 135 227 234 153z m-909 -141 c125 -89 71 -281 -78 -281
-140 0 -209 161 -111 259 52 52 134 62 189 22z m1310 -80 c108 -57 108 -211
-1 -269 -148 -79 -292 100 -187 233 42 54 125 70 188 36z m-1504 -330 c153
-70 101 -291 -68 -291 -134 0 -198 176 -97 266 49 44 104 52 165 25z m1474
-239 c14 -10 34 -34 44 -53 48 -87 -40 -203 -139 -185 -45 9 -91 48 -105 91
-39 117 101 220 200 147z m-1539 -387 c96 -50 89 -199 -12 -239 -85 -34 -179
27 -179 117 0 103 102 168 191 122z"/>
<path d="M4896 5219 c-52 -41 -18 -129 49 -129 68 0 101 82 52 128 -29 28 -67
28 -101 1z"/>
<path d="M3368 4823 c-37 -42 -28 -101 19 -122 34 -15 54 -13 83 8 30 24 33
80 5 111 -23 26 -85 27 -107 3z"/>
<path d="M4350 5047 c-270 -212 -362 -584 -223 -902 107 -242 344 -416 603
-442 389 -40 723 191 822 567 25 97 27 259 3 355 -17 71 -89 230 -123 274
l-19 24 -22 -46 c-21 -43 -76 -102 -117 -125 -17 -9 -16 -14 14 -79 93 -201
55 -427 -96 -582 -209 -212 -532 -213 -743 -2 -202 203 -201 525 3 732 l58 59
-35 45 c-34 45 -55 99 -55 143 0 12 -3 22 -7 22 -5 0 -33 -20 -63 -43z"/>
<path d="M2828 4786 c-149 -75 -252 -178 -322 -321 -54 -109 -76 -204 -76
-322 0 -122 22 -212 76 -323 89 -179 264 -320 460 -370 167 -43 359 -20 513
60 166 86 282 225 348 415 37 104 43 271 14 384 -11 46 -23 86 -25 88 -2 3
-25 -12 -50 -31 -46 -35 -100 -56 -145 -56 -19 0 -22 -4 -17 -22 35 -122 26
-240 -28 -354 -83 -175 -283 -289 -474 -270 -226 23 -412 206 -438 430 -9 77
13 186 53 267 48 95 118 164 230 224 1 0 -10 24 -24 53 -19 39 -26 68 -26 117
0 36 -1 65 -1 65 -1 0 -31 -15 -68 -34z"/>
<path d="M3858 1869 c-36 -20 -13 -79 31 -79 14 0 41 29 41 45 0 17 -27 45
-43 45 -7 0 -20 -5 -29 -11z"/>
<path d="M3323 1851 c-26 -12 -52 -36 -70 -62 -26 -39 -28 -50 -28 -139 0 -89
2 -100 28 -139 51 -77 151 -101 238 -56 34 18 69 69 69 103 0 19 -5 22 -40 22
-29 0 -40 -4 -40 -15 0 -25 -46 -65 -74 -65 -37 0 -72 19 -85 47 -6 13 -11 60
-11 103 0 43 5 90 11 103 13 28 48 47 85 47 28 0 74 -40 74 -65 0 -11 11 -15
40 -15 35 0 40 3 40 23 0 33 -35 84 -70 102 -51 26 -119 29 -167 6z"/>
<path d="M3727 1740 c-22 -18 -27 -19 -27 -6 0 12 -10 16 -40 16 l-40 0 0
-155 0 -155 40 0 40 0 0 104 c0 97 2 106 22 120 12 9 35 16 51 16 27 0 28 2
25 38 -4 45 -30 54 -71 22z"/>
<path d="M4130 1753 c-8 -3 -23 -12 -32 -21 -16 -14 -18 -13 -18 1 0 13 -9 17
-40 17 l-40 0 0 -155 0 -155 40 0 40 0 0 113 c0 119 6 137 46 137 52 0 54 -4
54 -131 l0 -119 40 0 40 0 0 103 c0 118 12 147 60 147 42 0 50 -23 50 -144 l0
-106 40 0 40 0 0 120 c0 136 -10 169 -59 190 -39 16 -92 6 -117 -21 -15 -17
-20 -18 -29 -6 -23 31 -75 45 -115 30z"/>
<path d="M4591 1742 c-52 -26 -74 -63 -79 -132 -5 -70 9 -110 49 -144 53 -45
162 -42 204 4 17 19 17 21 0 40 -16 17 -20 18 -38 5 -36 -25 -92 -19 -116 11
-12 15 -21 31 -21 35 0 5 46 9 101 9 l102 0 -6 54 c-6 65 -27 99 -72 120 -43
21 -82 20 -124 -2z m100 -62 c11 -6 19 -21 19 -35 0 -24 -3 -25 -60 -25 -65 0
-72 8 -44 48 16 24 53 29 85 12z"/>
<path d="M3840 1596 l0 -156 46 0 46 0 -4 153 -3 152 -42 3 -43 3 0 -155z"/>
<path d="M3978 1023 c-2 -5 -3 -57 -3 -117 0 -78 4 -110 13 -113 6 -3 12 3 12
13 0 16 1 16 18 1 49 -45 122 -1 122 73 0 66 -75 105 -122 63 -17 -15 -18 -14
-18 35 0 45 -12 68 -22 45z m124 -100 c22 -20 23 -70 1 -95 -36 -40 -103 -10
-103 45 0 58 60 88 102 50z"/>
<path d="M3577 999 c-15 -11 -31 -38 -37 -60 -22 -79 28 -149 105 -149 41 0
99 26 90 40 -4 6 -18 4 -35 -5 -31 -16 -78 -20 -96 -7 -42 29 -55 92 -29 141
22 44 71 54 125 26 25 -13 30 -13 30 -2 0 38 -111 50 -153 16z"/>
<path d="M3770 951 c0 -4 16 -43 36 -86 33 -72 34 -78 19 -95 -9 -10 -24 -16
-36 -13 -10 3 -19 0 -19 -6 0 -17 56 -13 71 5 16 19 89 197 83 203 -9 9 -24
-16 -48 -79 l-25 -65 -32 73 c-29 63 -49 90 -49 63z"/>
<path d="M4217 946 c-29 -22 -41 -80 -23 -115 8 -16 23 -31 31 -35 39 -14 105
1 105 25 0 6 -7 6 -19 -1 -32 -17 -79 -12 -91 9 -19 36 -12 41 55 41 59 0 65
2 65 20 0 52 -80 88 -123 56z m79 -14 c6 -4 14 -17 18 -29 7 -22 5 -23 -48
-23 -58 0 -64 6 -46 41 11 19 54 26 76 11z"/>
<path d="M4390 875 c0 -50 4 -85 10 -85 6 0 10 22 10 49 0 51 28 101 56 101 8
0 14 5 14 10 0 17 -22 11 -47 -12 l-23 -21 0 21 c0 12 -4 22 -10 22 -6 0 -10
-35 -10 -85z"/>
</g>
</svg>
