<?xml version="1.0" standalone="no"?>
<!DOCTYPE svg PUBLIC "-//W3C//DTD SVG 20010904//EN"
 "http://www.w3.org/TR/2001/REC-SVG-20010904/DTD/svg10.dtd">
<svg version="1.0" xmlns="http://www.w3.org/2000/svg"
 width="1300.000000pt" height="1300.000000pt" viewBox="0 0 1300.000000 1300.000000"
 preserveAspectRatio="xMidYMid meet">
<metadata>
Created by potrace 1.16, written by Peter Selinger 2001-2019
</metadata>
<g transform="translate(0.000000,1300.000000) scale(0.100000,-0.100000)"
fill="#000000" stroke="none">
<path d="M6450 11872 c0 -15 5 -122 11 -236 6 -114 8 -210 6 -213 -3 -2 -21
22 -40 54 -79 134 -211 350 -229 376 -18 25 -25 27 -86 27 -37 0 -98 -3 -136
-7 l-69 -6 7 -91 c3 -50 10 -212 16 -361 5 -148 13 -300 16 -337 l6 -66 96 5
c54 3 98 7 100 8 2 2 -13 371 -22 515 -3 51 -2 70 5 60 25 -38 227 -370 232
-382 4 -7 30 -51 60 -98 34 -55 59 -85 70 -84 9 0 58 1 108 2 l91 2 -6 68 c-3
37 -11 189 -16 337 -5 149 -13 312 -16 363 l-6 92 -99 0 -99 0 0 -28z"/>
<path d="M7193 11840 c-197 -40 -324 -227 -324 -479 0 -188 85 -315 259 -382
79 -31 240 -36 332 -11 72 19 68 11 85 160 8 70 -2 78 -47 43 -42 -34 -147
-64 -200 -58 -93 11 -160 64 -193 152 -14 35 -17 63 -12 126 13 187 137 314
279 284 49 -10 117 -53 171 -107 26 -26 51 -48 55 -48 9 0 32 138 32 188 0 17
-4 32 -9 32 -4 0 -23 10 -42 23 -66 44 -224 88 -308 86 -20 -1 -55 -5 -78 -9z"/>
<path d="M5599 11825 c-3 -2 -48 -13 -100 -24 -155 -32 -441 -99 -446 -105 -3
-2 9 -67 26 -143 57 -250 63 -277 97 -428 19 -82 40 -175 46 -205 7 -30 13
-56 13 -57 2 -4 130 24 267 57 67 17 134 32 148 34 14 1 53 9 88 16 71 14 70
13 46 111 -13 52 -20 66 -33 63 -105 -21 -219 -47 -231 -51 -15 -6 -20 -7 -76
-18 l-31 -5 -18 67 c-10 38 -19 84 -22 104 l-5 36 89 21 c48 12 121 29 161 38
39 9 72 21 72 26 0 5 -7 40 -16 79 -12 52 -20 69 -32 69 -9 -1 -82 -16 -162
-34 -80 -19 -148 -31 -151 -28 -7 7 -29 103 -29 126 0 8 23 18 58 25 60 13
285 64 289 66 2 1 -4 38 -13 83 -16 75 -22 90 -35 77z"/>
<path d="M7820 11720 c0 -12 9 -58 20 -101 21 -80 75 -334 90 -418 6 -39 0
-65 -46 -205 -30 -88 -51 -163 -46 -167 4 -3 49 -19 100 -34 79 -24 95 -26
103 -14 5 8 32 85 60 171 49 153 52 158 97 195 26 20 49 40 52 43 3 3 34 30
70 60 36 30 90 77 120 105 30 28 76 69 102 91 l47 41 -92 30 c-51 17 -102 34
-114 37 -19 6 -42 -12 -143 -109 -67 -64 -123 -115 -125 -113 -2 1 -15 68 -29
148 -14 80 -28 155 -31 166 -4 18 -25 28 -107 54 -57 18 -109 35 -115 38 -8 2
-13 -5 -13 -18z"/>
<path d="M4565 11543 c-164 -37 -315 -147 -373 -271 -24 -50 -27 -69 -27 -162
0 -88 4 -114 24 -165 60 -146 134 -233 241 -284 49 -23 67 -26 160 -25 89 0
115 4 172 26 81 32 163 83 240 150 l57 49 -18 47 c-10 26 -40 97 -66 157 -26
61 -54 127 -63 148 -11 27 -20 37 -31 33 -28 -8 -321 -133 -327 -138 -6 -7 31
-108 49 -132 13 -17 17 -17 86 14 40 17 74 30 76 28 1 -2 16 -36 33 -76 l31
-74 -47 -21 c-55 -25 -165 -34 -214 -18 -85 28 -176 169 -186 288 -11 138 68
232 224 264 50 10 72 9 143 -5 46 -9 86 -15 88 -12 3 3 -12 46 -33 96 l-38 90
-91 -1 c-49 -1 -99 -3 -110 -6z"/>
<path d="M9108 11106 c-56 -20 -85 -42 -118 -88 -58 -80 -64 -181 -14 -265 14
-24 63 -84 109 -133 47 -49 87 -100 91 -115 9 -34 -9 -72 -41 -87 -78 -35
-266 114 -306 245 -22 68 -32 65 -92 -30 l-56 -87 18 -29 c30 -48 133 -148
188 -183 108 -70 160 -88 258 -88 135 -1 194 34 254 151 51 102 17 194 -129
346 -41 43 -81 91 -89 108 -13 27 -13 32 6 57 16 21 30 28 64 30 37 2 54 -3
104 -36 67 -43 100 -81 145 -171 17 -33 32 -61 34 -61 3 0 47 69 85 133 22 36
22 39 6 63 -55 85 -173 178 -277 220 -76 32 -186 41 -240 20z"/>
<path d="M3645 11055 c-22 -7 -56 -22 -76 -32 -63 -33 -349 -228 -348 -238 0
-5 14 -31 32 -57 18 -25 67 -99 111 -165 43 -65 103 -154 133 -198 29 -44 84
-126 121 -182 37 -56 72 -103 79 -103 10 0 173 107 173 115 0 1 -33 52 -72
111 -107 160 -104 152 -64 171 33 15 37 14 218 -46 l185 -62 107 72 c59 39
104 75 99 79 -4 4 -35 15 -68 25 -33 10 -120 37 -194 61 -74 24 -141 44 -149
44 -10 0 -12 6 -8 23 43 140 43 164 2 251 -57 119 -164 169 -281 131z m86
-236 c32 -46 35 -88 7 -129 -25 -37 -116 -103 -130 -94 -9 6 -118 169 -118
178 0 9 113 78 140 86 35 10 77 -7 101 -41z"/>
<path d="M9782 10716 c-22 -24 -45 -52 -51 -63 -11 -22 -11 -23 125 -139 l48
-41 -128 -144 c-153 -171 -169 -189 -265 -297 -41 -45 -72 -83 -70 -85 2 -1
39 -33 82 -71 l78 -69 70 77 c39 42 110 120 157 175 48 54 118 133 155 174 40
44 66 81 62 88 -15 24 33 -11 121 -89 l90 -79 39 45 c68 78 70 81 49 101 -11
9 -104 93 -209 186 -104 93 -209 186 -232 208 -78 73 -76 72 -121 23z"/>
<path d="M2834 10457 c-82 -78 -175 -167 -206 -196 -32 -30 -58 -57 -58 -61 0
-5 21 -30 48 -57 309 -321 474 -495 501 -525 18 -21 36 -38 40 -38 3 0 45 37
92 83 47 45 142 135 209 200 l124 118 -60 59 -59 59 -130 -125 c-71 -68 -132
-123 -135 -123 -3 1 -36 35 -75 76 l-70 75 122 117 122 116 -55 58 c-31 31
-59 57 -63 57 -3 0 -58 -50 -121 -110 -63 -61 -117 -110 -120 -110 -3 0 -27
22 -54 49 l-48 49 38 37 c22 20 81 78 131 127 l93 91 -28 31 c-15 17 -41 43
-58 59 l-32 27 -148 -143z"/>
<path d="M10334 9970 c-177 -58 -330 -220 -364 -386 -37 -177 118 -411 309
-468 124 -37 260 -2 392 99 78 61 125 117 163 195 28 58 31 74 30 155 0 76 -4
99 -27 148 -30 66 -92 148 -142 190 -96 79 -241 106 -361 67z m248 -194 c9 0
14 -4 12 -8 -3 -4 5 -12 16 -18 38 -20 60 -70 60 -136 0 -51 -5 -68 -30 -106
-73 -109 -212 -198 -312 -198 -129 0 -207 129 -151 248 22 47 118 142 177 177
61 35 132 55 176 47 19 -3 43 -6 52 -6z"/>
<path d="M2260 9853 c-35 -49 -65 -96 -68 -106 -2 -9 7 -34 20 -55 14 -20 49
-77 78 -127 29 -49 70 -118 91 -152 30 -49 35 -63 22 -63 -9 0 -95 16 -192 35
-262 52 -233 57 -313 -55 -37 -52 -68 -100 -68 -106 0 -7 8 -14 18 -18 9 -3
42 -24 72 -46 30 -23 78 -57 105 -76 28 -19 95 -66 150 -105 55 -39 111 -78
125 -87 14 -9 68 -47 121 -84 54 -38 102 -68 108 -68 6 0 23 19 38 43 15 23
40 59 56 80 16 21 28 39 26 41 -2 2 -29 20 -59 40 -30 20 -100 68 -155 106
-55 39 -130 92 -168 117 -37 25 -66 47 -64 49 1 2 45 -6 97 -17 150 -32 240
-49 259 -49 11 0 35 24 58 58 l40 57 -78 125 c-44 69 -90 142 -103 163 -26 38
-24 47 3 23 9 -7 57 -41 106 -75 129 -88 235 -162 276 -194 43 -32 49 -33 70
-4 8 12 35 51 59 85 l44 64 -24 19 c-14 10 -101 72 -194 136 -93 65 -210 147
-260 181 -50 35 -114 79 -143 98 -28 18 -54 38 -58 44 -14 22 -34 6 -95 -77z"/>
<path d="M8600 9690 c0 -5 5 -10 11 -10 5 0 7 5 4 10 -3 6 -8 10 -11 10 -2 0
-4 -4 -4 -10z"/>
<path d="M8683 9638 c10 -7 28 -21 39 -30 12 -10 25 -18 30 -18 4 0 8 -8 8
-17 0 -13 3 -14 12 -5 6 6 10 13 7 14 -2 2 -17 12 -34 24 -16 11 -41 26 -55
33 -21 9 -22 9 -7 -1z"/>
<path d="M8801 9558 c8 -7 26 -22 40 -33 13 -11 32 -33 42 -48 10 -15 30 -33
45 -40 33 -15 126 -111 112 -115 -19 -7 -11 -42 10 -42 20 0 46 -43 35 -60 -2
-4 5 -16 17 -26 12 -11 18 -14 15 -7 -4 6 -1 14 5 16 8 3 9 6 2 6 -13 1 -6 51
7 51 5 0 6 -7 3 -15 -4 -8 -1 -15 5 -15 8 0 9 -5 2 -19 -8 -14 -7 -22 4 -31 8
-7 15 -19 15 -27 0 -12 3 -11 17 2 14 14 14 18 2 26 -10 7 -8 9 10 7 13 -2 26
2 27 7 4 11 -108 117 -236 225 -47 39 -100 84 -117 100 -18 16 -43 34 -55 40
-19 9 -21 9 -7 -2z"/>
<path d="M11125 9217 c-16 -7 -55 -25 -85 -41 -175 -91 -295 -153 -457 -237
-101 -51 -183 -98 -183 -103 0 -17 85 -185 93 -185 5 -1 60 26 123 59 63 34
119 58 124 55 5 -3 24 -35 42 -72 40 -80 106 -149 173 -183 39 -20 65 -25 121
-25 62 0 80 5 140 36 119 62 164 150 143 279 -7 47 -31 103 -91 219 -101 196
-109 211 -111 210 -1 0 -15 -6 -32 -12z m19 -316 c14 -32 26 -71 26 -86 0 -42
-28 -80 -76 -103 -52 -26 -93 -21 -128 15 -36 36 -80 113 -70 123 13 13 197
109 210 109 6 1 23 -25 38 -58z"/>
<path d="M9212 9178 c-7 -7 -12 -18 -12 -25 0 -6 -7 -16 -17 -21 -14 -8 -8
-17 36 -63 29 -30 58 -63 63 -74 6 -11 46 -61 90 -111 43 -51 78 -96 78 -101
0 -5 9 -16 20 -26 11 -9 20 -23 20 -31 0 -8 7 -16 15 -20 8 -3 15 -12 15 -19
0 -8 7 -20 15 -27 9 -7 34 -49 58 -94 23 -44 53 -94 68 -111 14 -16 43 -66 64
-110 22 -44 51 -99 66 -122 14 -24 41 -80 58 -125 17 -46 40 -101 51 -123 29
-62 51 -117 60 -150 4 -16 11 -38 15 -47 4 -11 3 -18 -4 -18 -7 0 -14 8 -17
18 -17 53 -133 303 -145 312 -4 3 -37 60 -73 126 -97 178 -163 277 -267 407
-14 17 -28 38 -30 45 -10 32 -386 432 -406 432 -4 0 -22 13 -39 30 -18 16 -34
26 -38 23 -3 -3 -15 2 -26 12 -11 10 -20 13 -20 7 0 -7 5 -12 10 -12 6 0 10
-9 10 -20 0 -11 -4 -20 -10 -20 -5 0 -10 -18 -10 -40 0 -39 -1 -40 -33 -40
-21 0 -38 -7 -47 -20 -8 -11 -22 -20 -32 -20 -11 0 -18 -7 -18 -20 0 -11 -4
-20 -10 -20 -6 0 -10 -33 -10 -80 l0 -80 -39 0 c-28 0 -40 -5 -43 -16 -3 -13
-6 -12 -25 5 -18 17 -33 20 -92 18 -39 -1 -71 -5 -71 -9 0 -5 7 -8 15 -8 8 0
15 -4 15 -10 0 -14 -49 -12 -95 5 -42 15 -145 20 -145 8 0 -5 25 -8 56 -9 37
0 59 -6 65 -15 6 -11 31 -13 111 -11 l103 3 64 -65 c36 -36 69 -62 75 -59 6 3
8 2 3 -2 -4 -5 36 -52 88 -105 52 -54 95 -101 96 -106 7 -79 7 -79 -97 -186
-116 -119 -184 -179 -197 -171 -6 4 -8 0 -4 -9 7 -19 -268 -299 -312 -318 -17
-7 -42 -9 -58 -5 -31 7 -317 284 -340 329 -14 28 -14 42 3 137 4 26 0 46 -15
75 -23 42 -26 70 -12 106 12 31 184 203 189 189 2 -6 8 -9 13 -5 25 15 1 -13
-76 -92 -99 -100 -108 -121 -75 -189 23 -47 23 -62 4 -163 -6 -33 -2 -38 147
-183 85 -82 164 -152 177 -156 18 -4 33 4 66 36 l42 41 -4 70 -4 71 97 97 c54
53 105 106 114 117 42 53 70 65 149 65 74 0 76 0 109 38 54 61 49 74 -84 206
-64 63 -121 112 -126 109 -6 -3 -7 -2 -4 4 3 5 -9 25 -28 43 l-34 33 -55 -13
c-30 -7 -74 -11 -98 -8 -39 5 -40 4 -15 -5 24 -10 28 -16 25 -47 -3 -33 -5
-35 -40 -38 -35 -3 -38 -6 -38 -33 0 -23 -4 -29 -21 -29 -11 0 -18 -4 -14 -9
15 -25 -45 -3 -88 32 l-47 39 25 24 c14 13 25 26 25 30 0 4 -9 -2 -20 -14 -31
-33 -94 -62 -111 -51 -8 5 -9 9 -3 9 6 0 16 11 22 25 9 18 9 25 0 25 -6 0 -24
14 -40 30 -15 17 -33 30 -38 30 -6 0 -23 8 -38 19 -133 92 -367 215 -505 266
-39 15 -81 30 -92 35 -121 51 -413 118 -614 141 -142 16 -562 6 -701 -16 -107
-17 -410 -90 -439 -105 -9 -5 -45 -19 -81 -31 -88 -30 -135 -50 -277 -121
-100 -51 -122 -66 -126 -87 -3 -15 -19 -36 -36 -49 -21 -15 -29 -17 -25 -7 4
8 10 15 15 15 11 0 43 49 36 56 -4 4 -97 -53 -116 -72 -2 -2 2 -11 10 -21 12
-15 12 -16 -3 -10 -10 3 -18 2 -18 -3 0 -5 -13 -7 -28 -4 -34 7 -67 -21 -38
-32 9 -3 16 -16 16 -28 0 -11 -4 -16 -8 -11 -15 21 -63 16 -95 -11 -43 -35
-53 -54 -36 -65 10 -6 11 -9 2 -9 -7 0 -13 -7 -13 -15 0 -20 -17 -19 -29 2 -8
15 -12 16 -35 3 -25 -13 -36 -40 -16 -40 5 0 7 -7 3 -16 -3 -9 -13 -14 -24
-11 -11 3 -17 1 -13 -4 3 -5 -2 -9 -10 -9 -8 0 -34 -20 -57 -44 -22 -25 -50
-46 -62 -48 -11 -2 -25 -11 -31 -21 -9 -14 -7 -20 8 -29 17 -9 15 -12 -15 -26
-19 -9 -50 -31 -69 -49 -19 -17 -48 -42 -63 -55 -25 -20 -27 -26 -18 -51 8
-20 7 -27 -2 -28 -6 -1 -16 -2 -22 -4 -5 -1 -15 -3 -21 -3 -5 -1 -24 -22 -42
-47 -28 -40 -30 -45 -14 -54 15 -9 15 -10 -4 -11 -26 0 -78 -65 -70 -86 3 -9
1 -24 -4 -35 -8 -13 -7 -19 0 -19 6 0 1 -13 -11 -30 -16 -22 -26 -27 -38 -20
-13 6 -22 -2 -42 -40 -19 -36 -23 -52 -15 -60 8 -9 6 -11 -7 -8 -15 2 -28 -19
-66 -107 -27 -61 -56 -130 -64 -155 -9 -25 -24 -65 -33 -90 -49 -136 -107
-414 -125 -605 -15 -164 -16 -448 -1 -540 6 -38 16 -106 23 -150 15 -113 71
-330 117 -460 64 -178 178 -435 194 -435 5 0 8 -7 8 -15 0 -9 17 -39 38 -68
42 -59 54 -77 81 -128 11 -19 26 -41 35 -48 8 -7 12 -20 9 -28 -5 -13 -1 -15
23 -9 16 4 36 7 44 8 8 0 22 6 30 12 8 6 5 -1 -7 -15 -28 -31 -29 -60 -3 -84
11 -10 20 -29 20 -42 0 -17 6 -23 23 -24 l22 0 -22 -9 c-27 -11 -33 -67 -8
-76 19 -8 19 -24 0 -24 -8 0 -15 -4 -15 -10 0 -5 -13 -10 -30 -10 -16 0 -30 5
-30 10 0 6 -9 10 -20 10 -15 0 -20 7 -20 24 0 14 -5 28 -10 31 -7 4 -9 -2 -4
-19 4 -16 2 -26 -5 -26 -6 0 -11 7 -11 15 0 8 -4 15 -10 15 -5 0 -10 -7 -10
-15 0 -8 4 -15 9 -15 16 0 22 -69 10 -128 -8 -37 -9 -64 -3 -75 18 -31 297
-307 311 -307 22 0 66 26 88 52 17 19 19 34 17 96 l-4 73 49 47 c27 26 57 55
68 65 11 9 43 43 70 75 69 80 92 92 178 92 68 0 72 1 104 36 55 61 54 72 -25
160 -100 114 -237 244 -255 244 -9 0 -40 -5 -69 -11 -39 -9 -53 -9 -56 0 -2 6
-8 11 -13 11 -6 0 -7 -5 -3 -11 4 -8 0 -8 -15 0 -11 7 -20 16 -18 22 1 7 -19
12 -52 13 -68 1 -81 23 -14 23 32 0 58 -7 76 -19 21 -15 37 -18 60 -14 138 29
116 40 330 -170 133 -131 137 -137 137 -177 0 -23 -4 -49 -9 -56 -5 -8 -74
-80 -153 -159 -128 -128 -146 -143 -170 -138 -29 6 -38 -7 -14 -21 11 -6 -18
-41 -111 -137 -103 -106 -132 -130 -164 -137 -28 -7 -47 -5 -65 4 -48 25 -314
290 -334 331 -19 42 -28 27 -10 -18 9 -24 8 -26 -20 -26 -25 0 -30 -4 -30 -25
0 -22 -4 -25 -35 -25 -32 0 -35 -2 -35 -30 0 -28 -2 -30 -40 -30 -22 0 -40 -4
-40 -10 0 -5 -9 -10 -20 -10 -11 0 -20 -7 -20 -15 0 -8 -7 -15 -15 -15 -8 0
-15 -9 -15 -20 0 -11 -4 -20 -10 -20 -5 0 -10 -18 -10 -40 0 -39 -1 -40 -35
-40 l-35 0 0 -53 0 -52 167 -170 c93 -94 185 -181 206 -195 21 -14 62 -46 91
-72 63 -58 102 -86 181 -131 33 -20 76 -48 97 -64 20 -15 51 -36 68 -46 18
-10 30 -20 28 -23 -9 -8 -242 113 -264 137 -10 12 -37 30 -59 42 -22 11 -55
31 -73 45 -18 14 -54 35 -80 48 -40 19 -73 45 -117 93 -13 15 -71 55 -110 77
-16 9 -46 32 -65 50 -19 19 -43 34 -53 34 -13 0 -17 5 -13 15 3 8 1 15 -4 15
-5 0 -12 -9 -15 -20 -7 -22 -20 -26 -31 -8 -4 7 2 18 14 26 l22 14 -31 29
c-17 16 -35 29 -40 29 -6 0 -20 9 -32 20 -12 11 -27 18 -34 16 -7 -3 -13 1
-13 8 0 8 -9 16 -20 19 -11 3 -20 1 -20 -4 0 -5 -7 -9 -15 -9 -8 0 -15 4 -15
8 0 4 -20 29 -45 55 -25 27 -45 55 -45 63 0 7 -7 14 -15 14 -8 0 -15 4 -15 10
0 5 -10 15 -22 21 l-23 12 20 -24 c11 -12 28 -32 37 -44 88 -103 132 -150 139
-147 5 1 8 -1 7 -5 -6 -18 113 -142 119 -125 3 6 9 12 15 12 7 0 6 -5 -1 -14
-10 -11 1 -26 52 -78 36 -34 86 -81 112 -103 26 -22 55 -47 64 -55 58 -56 336
-254 486 -347 120 -74 339 -184 490 -248 144 -60 428 -154 539 -179 209 -47
265 -57 393 -75 78 -11 210 -25 294 -31 l152 -12 58 58 59 58 -22 26 -22 25
24 -22 24 -23 56 53 55 52 -52 -55 -53 -56 58 -57 c56 -56 58 -57 107 -53 28
3 88 7 135 11 247 19 555 79 805 156 326 101 773 316 1016 488 20 14 76 54
125 89 182 129 462 391 635 593 358 419 616 888 767 1399 115 390 157 685 157
1095 -1 151 -6 316 -13 375 -28 234 -41 306 -96 557 -29 131 -130 431 -192
573 -50 113 -199 405 -231 453 -18 27 -33 51 -33 54 0 2 -19 32 -42 66 -24 34
-47 70 -53 79 -19 33 -70 104 -125 172 -30 39 -62 80 -70 92 -28 40 -241 274
-250 274 -3 0 -11 -5 -18 -12z m-625 -494 c-3 -3 -12 -4 -19 -1 -8 3 -5 6 6 6
11 1 17 -2 13 -5z m-157 -114 c0 -5 -7 -10 -15 -10 -8 0 -15 5 -15 10 0 6 7
10 15 10 8 0 15 -4 15 -10z m7 -56 c-3 -3 -12 -4 -19 -1 -8 3 -5 6 6 6 11 1
17 -2 13 -5z m-1707 -24 c381 -45 703 -176 1015 -414 85 -65 275 -248 295
-285 7 -14 17 -20 26 -17 9 3 12 1 9 -4 -4 -6 7 -27 23 -48 16 -20 58 -82 92
-137 70 -110 85 -131 74 -100 -4 12 -3 17 2 12 11 -11 15 -245 3 -252 -5 -4
-6 1 -3 9 11 29 -2 17 -42 -39 -21 -30 -45 -55 -52 -55 -7 0 -27 -7 -45 -17
-39 -20 -104 -18 -172 4 -27 10 -54 16 -60 14 -5 -1 -7 1 -3 5 4 3 -11 27 -32
52 -22 25 -40 49 -40 54 0 36 -187 266 -299 368 -191 174 -396 282 -666 351
-129 34 -131 34 -360 34 l-230 0 -135 -37 c-140 -38 -243 -78 -367 -143 -119
-63 -221 -58 -304 13 -54 46 -79 101 -79 176 0 71 26 131 75 174 37 33 242
137 348 177 110 42 284 84 412 100 231 29 312 30 515 5z m1698 1 c45 -23 87
-66 101 -104 17 -45 13 -109 -9 -137 -11 -14 -20 -30 -20 -36 0 -27 -90 -84
-133 -84 -37 0 -108 28 -135 53 -26 24 -62 97 -62 127 0 10 7 41 17 69 12 39
25 56 52 73 20 12 45 30 55 40 26 24 87 23 134 -1z m312 -821 c0 -28 2 -30 39
-30 30 0 41 -5 46 -19 3 -10 14 -21 25 -24 11 -3 22 -13 25 -24 10 -30 49
-107 62 -121 7 -7 15 -25 19 -40 3 -15 14 -51 26 -80 11 -29 24 -67 28 -85 5
-18 18 -68 30 -112 67 -248 94 -517 80 -775 -13 -227 -35 -372 -80 -535 -17
-60 -36 -127 -41 -148 -5 -22 -18 -56 -29 -77 -11 -22 -20 -45 -20 -53 0 -7
-12 -38 -26 -68 -42 -86 -74 -161 -74 -171 0 -5 -9 -21 -20 -35 -11 -14 -20
-32 -20 -40 0 -8 -19 -38 -41 -68 -34 -46 -40 -60 -35 -85 5 -28 3 -31 -24
-36 -32 -7 -45 -31 -36 -66 3 -13 3 -17 0 -11 -4 10 -9 9 -21 -2 -8 -8 -19
-13 -24 -10 -5 4 -9 2 -9 -4 0 -6 -15 -27 -32 -47 l-33 -37 28 5 c21 4 27 1
27 -12 0 -13 -6 -17 -20 -13 -12 3 -20 2 -19 -3 4 -22 -2 -44 -12 -44 -5 0 -7
4 -4 10 11 17 -25 11 -44 -7 -26 -25 -30 -45 -13 -63 13 -13 13 -15 -6 -20
-11 -3 -37 -18 -57 -34 -20 -16 -51 -37 -68 -46 -18 -10 -40 -34 -51 -56 -10
-21 -23 -42 -28 -45 -6 -4 -8 -12 -4 -18 5 -7 1 -9 -8 -5 -10 4 -16 1 -16 -9
0 -8 -7 -20 -15 -27 -13 -11 -15 -8 -15 14 l0 27 -45 -38 c-32 -27 -45 -44
-41 -56 9 -35 -2 -47 -31 -32 -16 9 -30 10 -37 4 -6 -5 -24 -19 -39 -30 -16
-12 -26 -27 -23 -34 3 -8 -4 -12 -19 -12 -13 0 -60 -24 -104 -54 -44 -29 -88
-54 -98 -55 -22 -4 -45 -34 -39 -51 4 -10 1 -10 -12 -2 -14 9 -40 0 -132 -43
-191 -90 -442 -170 -620 -198 -30 -4 -86 -13 -125 -20 -38 -6 -155 -14 -260
-17 -236 -7 -446 11 -620 54 -33 8 -76 17 -95 20 -19 3 -42 9 -52 14 -9 5 -56
23 -105 41 -48 17 -94 37 -100 44 -16 15 -17 84 -2 84 6 0 10 12 9 28 -3 45
-1 52 20 52 11 0 20 5 20 10 0 6 14 10 30 10 23 0 30 4 30 20 0 12 7 20 16 20
23 0 44 25 44 54 0 19 -5 26 -20 26 -13 0 -20 7 -20 20 0 18 7 20 60 20 58 0
60 1 60 26 0 28 20 54 42 54 8 0 20 9 28 20 8 11 22 20 32 20 13 0 18 8 18 30
0 17 -4 30 -10 30 -5 0 -10 5 -10 10 0 6 7 10 16 10 18 0 44 23 44 40 0 20 28
40 54 40 19 0 26 5 26 20 0 13 7 20 20 20 11 0 20 5 20 10 0 6 -9 10 -20 10
-11 0 -20 5 -20 10 0 6 9 10 20 10 13 0 20 7 20 20 0 11 5 20 10 20 6 0 10 -9
10 -20 0 -14 7 -20 24 -20 19 0 25 7 30 33 5 23 9 28 15 18 7 -11 12 -9 22 10
7 13 12 30 10 38 -1 8 2 10 10 5 9 -5 10 -2 6 10 -4 9 -3 15 2 12 4 -3 17 4
27 15 13 14 14 18 3 14 -10 -4 -15 2 -17 20 -1 22 2 25 28 25 27 0 30 -2 20
-20 -10 -19 -10 -19 20 -2 l29 17 -32 11 -32 11 32 7 c33 8 50 31 30 40 -9 5
-9 7 1 12 6 3 12 23 12 45 0 32 3 39 20 39 17 0 20 7 20 40 0 38 2 40 30 40
23 0 30 4 30 20 0 13 7 20 20 20 13 0 20 7 20 20 0 16 7 20 30 20 23 0 30 4
30 20 0 13 7 20 20 20 13 0 20 7 20 20 0 13 7 20 20 20 13 0 20 7 20 20 0 11
5 20 10 20 6 0 10 18 10 40 l0 40 40 0 c33 0 40 3 40 20 0 16 7 20 30 20 23 0
30 4 30 20 0 11 5 20 10 20 6 0 10 9 10 20 0 16 7 20 30 20 28 0 30 2 30 39 0
30 4 40 20 44 11 3 20 12 20 21 0 9 7 16 16 16 20 0 44 24 44 44 0 14 39 23
74 17 4 -1 13 5 20 14 13 18 46 16 73 -5 10 -8 7 -3 -6 12 -13 15 -27 26 -30
23 -4 -2 -8 5 -8 16 -2 17 1 18 13 8 13 -10 13 -8 5 15 -6 14 -9 26 -7 26 10
0 79 -71 73 -76 -3 -4 -13 1 -22 10 -9 9 -19 16 -23 16 -4 0 5 -11 20 -24 15
-13 25 -26 22 -29 -2 -2 2 -10 10 -16 11 -9 16 -9 22 0 4 7 3 9 -3 6 -6 -4
-13 2 -16 13 -6 22 8 28 16 8 3 -8 6 -8 6 -2 1 15 -29 48 -57 63 -12 7 -20 16
-17 21 3 4 -1 11 -7 13 -10 4 -10 7 0 15 7 5 10 16 6 26 -4 10 1 23 15 35 11
10 21 26 21 35 0 9 8 16 20 16 16 0 20 7 20 30 0 23 4 30 20 30 17 0 20 7 20
40 l0 40 40 0 c33 0 40 3 40 20 0 13 7 20 20 20 13 0 20 7 20 20 0 13 7 20 20
20 13 0 20 7 20 20 0 15 7 20 26 20 38 0 54 22 54 74 l0 46 40 0 c33 0 40 3
40 20 0 11 5 20 10 20 6 0 10 9 10 20 0 12 7 20 16 20 8 0 23 7 31 16 14 13
14 17 2 26 -11 7 -11 11 -1 15 6 2 12 13 12 24 0 12 7 19 20 19 16 0 20 7 20
30 l0 30 60 0 c53 0 60 2 60 20 0 18 -2 18 -40 5 -35 -12 -40 -12 -40 0 0 8 9
15 20 15 13 0 20 7 20 20 0 13 7 20 20 20 13 0 20 7 20 20 0 15 7 20 29 20 16
0 32 -6 34 -12 4 -8 8 -4 12 10 4 12 15 22 26 22 11 0 18 3 18 8 -1 4 -1 26 0
50 1 40 3 42 31 42 25 0 30 4 30 25 0 26 40 75 60 75 17 0 40 26 40 44 0 9 6
16 14 16 8 0 17 14 21 30 6 29 25 42 25 18 0 -9 3 -9 12 0 7 7 25 12 40 12 29
0 38 14 16 24 -10 5 -10 7 0 12 6 3 12 14 12 25 0 10 9 24 20 31 11 7 20 23
20 36 0 23 52 83 83 95 11 4 17 17 17 36 0 35 15 48 35 31 11 -9 18 -9 30 3 8
9 15 23 15 31 0 9 5 16 10 16 6 0 10 7 10 15 0 18 44 65 60 65 24 0 40 30 40
74 l0 46 40 0 c38 0 40 2 40 30 0 17 5 30 10 30 6 0 10 -13 10 -30z m-3672
-69 c85 -43 131 -119 132 -214 0 -51 -8 -73 -70 -201 -48 -100 -81 -184 -105
-273 -52 -187 -58 -242 -52 -463 4 -176 8 -206 35 -310 63 -240 162 -437 306
-610 79 -95 96 -111 112 -106 6 3 11 -3 10 -11 -1 -21 116 -121 229 -194 50
-32 100 -69 113 -81 12 -13 28 -23 35 -23 6 0 12 -4 12 -10 1 -5 7 -27 14 -49
16 -47 10 -170 -10 -206 -21 -36 -79 -89 -118 -106 -38 -16 -109 -20 -160 -9
-26 5 -32 4 -26 -5 5 -9 4 -11 -4 -6 -6 4 -9 11 -7 15 3 4 -12 16 -32 26 -20
11 -39 22 -42 25 -3 3 -27 20 -55 37 -228 145 -459 388 -610 644 -312 529
-365 1170 -146 1757 48 129 131 281 179 329 73 72 172 89 260 44z m433 -78
c13 -16 12 -17 -3 -4 -10 7 -18 15 -18 17 0 8 8 3 21 -13z m4746 -1003 l78 75
-75 -77 -74 -78 39 -42 40 -43 -42 39 -43 40 -37 -35 -38 -34 35 38 34 38
-549 552 -550 552 552 -550 553 -550 77 75z m-2747 965 c-24 -25 -46 -45 -49
-45 -3 0 15 20 39 45 24 25 46 45 49 45 3 0 -15 -20 -39 -45z m-1880 -82 c0
-8 -9 0 -50 45 l-45 47 48 -45 c26 -24 47 -45 47 -47z m1750 -48 c-41 -41 -77
-75 -79 -75 -3 0 28 34 69 75 41 41 77 75 79 75 3 0 -28 -34 -69 -75z m-1715
15 c10 -11 16 -20 13 -20 -3 0 -13 9 -23 20 -10 11 -16 20 -13 20 3 0 13 -9
23 -20z m80 -80 c10 -11 16 -20 13 -20 -3 0 -13 9 -23 20 -10 11 -16 20 -13
20 3 0 13 -9 23 -20z m1545 -23 c0 -2 -17 -19 -37 -38 l-38 -34 34 38 c33 34
41 42 41 34z m-1484 -39 l29 -33 -32 29 c-31 28 -38 36 -30 36 2 0 16 -15 33
-32z m1334 -113 c-41 -41 -77 -75 -79 -75 -3 0 28 34 69 75 41 41 77 75 79 75
3 0 -28 -34 -69 -75z m-1229 8 c13 -16 12 -17 -3 -4 -10 7 -18 15 -18 17 0 8
8 3 21 -13z m2266 11 c-3 -3 -12 -4 -19 -1 -8 3 -5 6 6 6 11 1 17 -2 13 -5z
m13 -64 c0 -5 -4 -10 -10 -10 -5 0 -10 5 -10 10 0 6 5 10 10 10 6 0 10 -4 10
-10z m-2199 -27 c13 -16 12 -17 -3 -4 -10 7 -18 15 -18 17 0 8 8 3 21 -13z
m1029 -46 c0 -1 -28 -29 -62 -62 l-63 -60 60 63 c55 58 65 67 65 59z m-949
-34 c13 -16 12 -17 -3 -4 -10 7 -18 15 -18 17 0 8 8 3 21 -13z m69 -68 c13
-14 21 -25 18 -25 -2 0 -15 11 -28 25 -13 14 -21 25 -18 25 2 0 15 -11 28 -25z
m680 -100 c-41 -41 -77 -75 -79 -75 -3 0 28 34 69 75 41 41 77 75 79 75 3 0
-28 -34 -69 -75z m-595 15 c10 -11 16 -20 13 -20 -3 0 -13 9 -23 20 -10 11
-16 20 -13 20 3 0 13 -9 23 -20z m80 -80 c10 -11 16 -20 13 -20 -3 0 -13 9
-23 20 -10 11 -16 20 -13 20 3 0 13 -9 23 -20z m425 -23 c0 -2 -17 -19 -37
-38 l-38 -34 34 38 c33 34 41 42 41 34z m-345 -57 c10 -11 16 -20 13 -20 -3 0
-13 9 -23 20 -10 11 -16 20 -13 20 3 0 13 -9 23 -20z m265 -23 c0 -2 -17 -19
-37 -38 l-38 -34 34 38 c33 34 41 42 41 34z m-189 -54 c13 -16 12 -17 -3 -4
-10 7 -18 15 -18 17 0 8 8 3 21 -13z m91 -46 l-22 -23 279 -276 c153 -152 282
-274 287 -270 4 4 4 2 1 -4 -8 -14 30 -50 41 -40 4 4 -2 14 -12 22 -11 7 -17
16 -14 20 3 3 18 -7 32 -23 22 -23 28 -25 36 -13 5 8 12 11 16 8 3 -4 -2 -15
-12 -25 -12 -13 -19 -14 -22 -5 -2 6 -9 12 -15 12 -7 -1 -2 -9 11 -20 12 -10
18 -21 13 -25 -6 -3 -153 138 -328 315 l-317 320 -56 -53 -55 -52 53 55 c50
54 51 56 35 75 -18 19 -17 19 3 2 20 -16 22 -16 39 3 10 11 20 20 23 20 3 0
-4 -10 -16 -23z m-142 -140 c0 -2 -17 -19 -37 -38 l-38 -34 34 38 c33 34 41
42 41 34z m3680 -40 c0 -1 -33 -34 -72 -72 l-73 -70 70 73 c64 67 75 77 75 69z
m216 -29 l29 -33 -32 29 c-31 28 -38 36 -30 36 2 0 16 -15 33 -32z m-3976 -11
c0 -2 -17 -19 -37 -38 l-38 -34 34 38 c33 34 41 42 41 34z m-150 -152 c-41
-41 -77 -75 -79 -75 -3 0 28 34 69 75 41 41 77 75 79 75 3 0 -28 -34 -69 -75z
m3760 42 c0 -1 -71 -72 -157 -157 l-158 -155 155 158 c144 146 160 162 160
154z m-3880 -160 c0 -2 -10 -12 -22 -23 l-23 -19 19 23 c18 21 26 27 26 19z
m995 -17 c10 -11 16 -20 13 -20 -3 0 -13 9 -23 20 -10 11 -16 20 -13 20 3 0
13 -9 23 -20z m-1075 -63 c0 -2 -10 -12 -22 -23 l-23 -19 19 23 c18 21 26 27
26 19z m-50 -50 c0 -2 -19 -21 -42 -42 l-43 -40 40 43 c36 39 45 47 45 39z
m1213 -47 c9 -11 13 -20 9 -20 -10 1 -42 26 -42 34 0 12 16 6 33 -14z m2477
17 c0 -1 -37 -38 -82 -82 l-83 -80 80 83 c74 76 85 87 85 79z m-3780 -60 c0
-2 -15 -16 -32 -33 l-33 -29 29 33 c28 30 36 37 36 29z m-100 -100 c0 -2 -10
-12 -22 -23 l-23 -19 19 23 c18 21 26 27 26 19z m3710 -10 c0 -1 -33 -34 -72
-72 l-73 -70 70 73 c64 67 75 77 75 69z m-3770 -50 c0 -2 -15 -16 -32 -33
l-33 -29 29 33 c28 30 36 37 36 29z m-70 -70 c0 -2 -17 -19 -37 -38 l-38 -34
34 38 c33 34 41 42 41 34z m3620 -102 c-41 -41 -77 -75 -79 -75 -3 0 28 34 69
75 41 41 77 75 79 75 3 0 -28 -34 -69 -75z m-3700 22 c0 -2 -17 -19 -37 -38
l-38 -34 34 38 c33 34 41 42 41 34z m-914 -452 c-8 -8 -20 -15 -26 -15 -6 0
-8 -5 -4 -12 5 -7 3 -8 -5 -4 -15 10 14 46 36 46 12 0 12 -2 -1 -15z m-86 -85
c-12 -16 -24 -30 -26 -30 -3 0 4 14 16 30 12 17 24 30 26 30 3 0 -4 -13 -16
-30z m-40 -38 c0 -15 -11 -21 -27 -15 -12 5 -12 7 -1 14 17 11 28 11 28 1z
m1785 -42 c-5 -8 -11 -8 -17 -2 -6 6 -7 16 -3 22 5 8 11 8 17 2 6 -6 7 -16 3
-22z m2370 0 c3 -5 2 -10 -4 -10 -5 0 -13 5 -16 10 -3 6 -2 10 4 10 5 0 13 -4
16 -10z m-3872 -84 c97 -44 128 -144 76 -247 -20 -39 -39 -52 -66 -43 -14 5
-15 4 -4 -4 12 -8 8 -14 -20 -31 -58 -35 -130 -23 -197 34 -57 49 -70 159 -25
216 51 66 90 89 150 89 29 0 68 -7 86 -14z m1377 -16 c0 -5 -4 -10 -10 -10 -5
0 -10 5 -10 10 0 6 5 10 10 10 6 0 10 -4 10 -10z m-1770 -262 c0 -36 -16 -29
-22 11 -3 21 -1 28 9 24 7 -3 13 -18 13 -35z m140 22 c0 -5 -4 -10 -10 -10 -5
0 -10 -7 -10 -16 0 -8 -4 -12 -10 -9 -6 4 -5 13 3 25 13 21 27 26 27 10z
m-159 -93 c-10 -9 -11 -8 -5 6 3 10 9 15 12 12 3 -3 0 -11 -7 -18z m39 -38 c0
-20 -4 -29 -12 -27 -15 5 -22 33 -14 54 9 24 26 6 26 -27z m1450 22 c0 -10 -9
-21 -20 -24 -16 -4 -20 0 -20 19 0 17 6 24 20 24 13 0 20 -7 20 -19z m-1570
-148 c0 -14 -6 -23 -15 -23 -9 0 -15 9 -15 23 0 14 6 24 15 24 9 0 15 -10 15
-24z m-470 -418 c0 -8 -7 -15 -15 -15 -16 0 -20 12 -8 23 11 12 23 8 23 -8z
m-13 -57 c-3 -7 -5 -2 -5 12 0 14 2 19 5 13 2 -7 2 -19 0 -25z m63 23 c-8 -6
-18 -7 -22 -5 -4 3 -8 -2 -8 -10 0 -9 -4 -16 -9 -16 -5 0 -7 9 -4 20 4 14 14
20 32 20 20 0 22 -3 11 -9z m1840 -226 c129 -129 233 -235 230 -235 -3 0 -111
106 -240 235 -129 129 -233 235 -230 235 3 0 111 -106 240 -235z m1850 172 c0
-1 -24 -25 -52 -52 l-53 -50 50 53 c46 48 55 57 55 49z m-180 -182 c-41 -41
-77 -75 -79 -75 -3 0 28 34 69 75 41 41 77 75 79 75 3 0 -28 -34 -69 -75z
m-160 -160 c-41 -41 -77 -75 -79 -75 -3 0 28 34 69 75 41 41 77 75 79 75 3 0
-28 -34 -69 -75z m-1205 -135 c33 -33 57 -60 54 -60 -2 0 -31 27 -64 60 -33
33 -57 60 -54 60 2 0 31 -27 64 -60z m1115 47 c0 -2 -17 -19 -37 -38 l-38 -34
34 38 c33 34 41 42 41 34z m-80 -80 c0 -2 -17 -19 -37 -38 l-38 -34 34 38 c33
34 41 42 41 34z m-2230 -47 c0 -6 -9 -5 -20 2 -11 7 -20 16 -20 21 0 4 9 3 20
-3 11 -6 20 -15 20 -20z m1315 -40 c27 -27 47 -50 44 -50 -3 0 -27 23 -54 50
-27 28 -47 50 -44 50 3 0 27 -22 54 -50z m765 -65 c-41 -41 -77 -75 -79 -75
-3 0 28 34 69 75 41 41 77 75 79 75 3 0 -28 -34 -69 -75z m-670 -30 c19 -19
32 -35 29 -35 -3 0 -20 16 -39 35 -19 19 -32 35 -29 35 3 0 20 -16 39 -35z
m120 -122 l75 -78 -77 75 c-43 41 -78 76 -78 77 0 8 11 -3 80 -74z m390 -8
c-41 -41 -77 -75 -79 -75 -3 0 28 34 69 75 41 41 77 75 79 75 3 0 -28 -34 -69
-75z m-274 -107 l29 -33 -32 29 c-31 28 -38 36 -30 36 2 0 16 -15 33 -32z"/>
<path d="M8700 7590 c0 -16 5 -30 10 -30 6 0 10 14 10 30 0 17 -4 30 -10 30
-5 0 -10 -13 -10 -30z"/>
<path d="M8320 6751 l-25 -7 26 -5 c17 -4 26 -1 26 8 0 7 -1 13 -1 12 -1 -1
-12 -4 -26 -8z"/>
<path d="M8238 6743 c6 -2 18 -2 25 0 6 3 1 5 -13 5 -14 0 -19 -2 -12 -5z"/>
<path d="M8087 6679 c-5 -17 -3 -18 11 -7 9 7 18 13 20 14 2 1 -4 4 -12 7 -8
3 -16 -2 -19 -14z"/>
<path d="M8021 6424 c0 -11 3 -14 6 -6 3 7 2 16 -1 19 -3 4 -6 -2 -5 -13z"/>
<path d="M7220 5880 c0 -5 5 -10 10 -10 6 0 10 5 10 10 0 6 -4 10 -10 10 -5 0
-10 -4 -10 -10z"/>
<path d="M7232 5758 c2 -8 -6 -12 -22 -11 -22 3 -23 2 -6 -8 14 -9 22 -8 33 4
11 10 12 17 4 22 -7 4 -10 1 -9 -7z"/>
<path d="M7275 5720 c10 -11 20 -20 23 -20 3 0 -3 9 -13 20 -10 11 -20 20 -23
20 -3 0 3 -9 13 -20z"/>
<path d="M7326 5711 c-3 -5 1 -14 8 -20 10 -9 16 -9 21 -1 4 6 1 9 -7 8 -7 -2
-12 3 -10 10 2 14 -4 16 -12 3z"/>
<path d="M6880 5530 c0 -5 5 -10 10 -10 6 0 10 5 10 10 0 6 -4 10 -10 10 -5 0
-10 -4 -10 -10z"/>
<path d="M6433 4981 c-10 -16 -9 -18 7 -14 11 3 18 9 15 13 -3 5 3 11 12 13
15 4 15 5 -2 6 -11 0 -26 -8 -32 -18z"/>
<path d="M6646 4989 c3 -5 24 -9 46 -9 51 0 47 5 -10 13 -24 3 -40 1 -36 -4z"/>
<path d="M6388 4973 c7 -3 16 -2 19 1 4 3 -2 6 -13 5 -11 0 -14 -3 -6 -6z"/>
<path d="M6513 4973 c15 -2 37 -2 50 0 12 2 0 4 -28 4 -27 0 -38 -2 -22 -4z"/>
<path d="M6245 4759 c-4 -6 -5 -12 -2 -15 2 -3 7 2 10 11 7 17 1 20 -8 4z"/>
<path d="M6251 4708 c0 -14 -4 -35 -7 -45 -5 -17 -5 -17 6 0 6 10 9 30 7 45
l-4 27 -2 -27z"/>
<path d="M5660 4190 c0 -5 5 -10 10 -10 6 0 10 5 10 10 0 6 -4 10 -10 10 -5 0
-10 -4 -10 -10z"/>
<path d="M1645 8862 c-62 -144 -136 -313 -167 -381 -16 -35 -26 -67 -21 -71 4
-4 98 -46 208 -94 110 -49 238 -105 285 -126 147 -67 272 -120 282 -120 5 0
16 16 24 35 8 20 28 65 44 101 17 35 30 67 30 70 0 3 11 29 24 57 39 84 67
148 92 210 l23 58 -47 20 c-26 11 -59 26 -74 33 l-26 13 -37 -81 c-50 -109
-74 -163 -96 -213 l-18 -42 -93 41 c-51 22 -95 42 -97 44 -2 2 26 72 63 155
36 84 65 153 63 155 -6 6 -140 64 -148 64 -5 0 -9 -4 -9 -9 0 -5 -28 -74 -63
-154 l-63 -145 -65 30 c-35 16 -65 31 -66 32 -2 1 29 76 68 165 39 89 69 164
67 166 -1 1 -35 19 -74 38 l-72 36 -37 -87z"/>
<path d="M8680 8860 c0 -13 7 -20 20 -20 13 0 20 7 20 20 0 13 -7 20 -20 20
-13 0 -20 -7 -20 -20z"/>
<path d="M8183 8708 c-37 -42 -37 -54 0 -19 21 19 37 36 37 38 0 10 -19 0 -37
-19z"/>
<path d="M8297 8719 c-12 -7 -16 -17 -12 -30 4 -12 1 -21 -9 -25 -9 -3 -16
-11 -16 -17 0 -6 14 2 30 18 17 16 28 35 26 41 -3 7 0 15 7 18 7 2 8 5 2 5 -5
0 -18 -4 -28 -10z m13 -19 c0 -5 -4 -10 -10 -10 -5 0 -10 5 -10 10 0 6 5 10
10 10 6 0 10 -4 10 -10z"/>
<path d="M4303 4830 c-13 -10 -23 -22 -23 -26 0 -4 -10 -19 -22 -33 -12 -14 0
-5 27 21 49 47 61 73 18 38z"/>
<path d="M4373 4798 c-21 -27 -21 -34 -3 -35 24 -2 34 12 22 33 -7 12 -10 13
-19 2z m17 -18 c0 -5 -4 -10 -10 -10 -5 0 -10 5 -10 10 0 6 5 10 10 10 6 0 10
-4 10 -10z"/>
<path d="M4407 4763 c-4 -3 -7 -11 -7 -17 0 -6 5 -5 12 2 6 6 9 14 7 17 -3 3
-9 2 -12 -2z"/>
<path d="M10614 4593 c-112 -230 -166 -345 -162 -347 2 -1 33 -16 71 -34 71
-34 87 -38 87 -22 0 17 144 310 152 310 7 0 176 -77 186 -85 1 -1 -29 -68 -68
-150 -38 -81 -70 -150 -70 -154 0 -8 140 -74 145 -69 3 2 36 70 75 150 l71
147 57 -26 c31 -13 61 -28 65 -32 5 -5 -26 -79 -67 -165 -42 -86 -76 -160 -76
-164 0 -5 32 -23 71 -42 81 -38 72 -43 123 65 87 181 168 350 186 386 l20 39
-127 61 c-71 34 -182 87 -248 119 -66 32 -182 87 -258 124 -75 36 -139 66
-142 66 -2 0 -43 -80 -91 -177z"/>
<path d="M4297 4717 c-9 -11 -17 -30 -17 -41 0 -15 6 -10 21 18 23 44 22 55
-4 23z"/>
<path d="M4210 4672 l5 -47 3 39 c2 21 0 42 -5 47 -4 4 -6 -13 -3 -39z"/>
<path d="M1743 4658 c-120 -40 -187 -128 -186 -242 1 -74 18 -124 95 -286 33
-69 67 -142 75 -162 8 -21 16 -38 18 -38 3 0 257 119 460 215 232 109 310 147
314 151 4 3 -74 178 -86 193 -1 2 -59 -22 -128 -54 -69 -32 -127 -56 -129 -54
-2 2 -21 40 -41 84 -48 100 -109 163 -188 193 -72 27 -124 27 -204 0z m192
-210 c23 -10 104 -133 94 -142 -6 -6 -218 -106 -223 -106 -3 0 -17 25 -31 55
-29 64 -32 120 -9 154 32 45 115 64 169 39z"/>
<path d="M4241 4535 c0 -43 3 -54 9 -40 12 27 12 67 0 85 -7 11 -10 -3 -9 -45z"/>
<path d="M3260 4453 c0 -6 8 -17 18 -24 16 -13 16 -13 2 6 -8 11 -16 22 -17
24 -2 2 -3 0 -3 -6z"/>
<path d="M3290 4406 c0 -2 8 -10 18 -17 15 -13 16 -12 3 4 -13 16 -21 21 -21
13z"/>
<path d="M3366 4297 c3 -10 9 -15 12 -12 3 3 0 11 -7 18 -10 9 -11 8 -5 -6z"/>
<path d="M3390 4274 c0 -6 7 -19 15 -30 8 -10 14 -14 14 -9 0 6 -6 19 -14 29
-8 11 -15 15 -15 10z"/>
<path d="M3434 4210 c3 -8 9 -22 12 -30 3 -9 14 -22 26 -29 16 -10 15 -5 -8
26 -36 49 -38 51 -30 33z"/>
<path d="M10323 4037 l-61 -84 211 -159 c116 -87 218 -164 226 -170 8 -6 -59
8 -150 31 -90 23 -176 45 -191 49 -24 5 -32 0 -73 -53 l-45 -60 75 -130 c127
-221 126 -219 88 -186 -10 8 -68 52 -129 97 -61 46 -147 111 -192 146 -44 34
-87 62 -94 62 -10 0 -115 -133 -126 -160 -2 -4 115 -97 260 -205 145 -109 298
-225 341 -258 67 -51 79 -58 90 -45 22 27 123 163 131 175 8 14 -51 133 -66
133 -5 0 -7 4 -4 9 3 5 -23 59 -58 120 -77 132 -86 155 -59 147 10 -3 79 -19
153 -35 74 -17 166 -38 203 -46 l68 -16 22 28 c54 68 127 169 127 176 0 4 -4
7 -8 7 -5 0 -17 8 -28 18 -20 18 -243 187 -280 212 -32 21 -336 253 -352 268
-7 6 -15 12 -16 12 -1 0 -30 -38 -63 -83z"/>
<path d="M2441 4030 c-140 -29 -314 -158 -375 -279 -49 -95 -56 -211 -17 -311
19 -51 114 -190 129 -190 4 0 22 -13 40 -30 72 -63 210 -85 327 -53 67 19 89
30 160 79 85 59 151 134 187 211 27 58 31 77 31 152 0 80 -3 93 -38 165 -91
187 -272 291 -444 256z m211 -229 c56 -36 82 -80 81 -141 0 -168 -280 -354
-428 -284 -42 20 -82 77 -91 130 -16 101 98 236 253 300 80 32 128 31 185 -5z"/>
<path d="M3198 3220 c-42 -44 -148 -156 -238 -249 l-162 -169 -92 89 -91 88
-58 -61 -57 -62 52 -50 c29 -27 144 -138 256 -245 112 -108 207 -197 211 -199
10 -4 111 100 111 114 0 6 -38 46 -84 89 -50 46 -84 85 -83 96 1 10 4 16 8 14
3 -2 68 62 145 142 76 81 180 189 230 240 l91 95 -66 61 c-36 34 -70 68 -74
75 -4 6 -12 12 -16 12 -5 0 -42 -36 -83 -80z"/>
<path d="M9685 3263 c-41 -35 -155 -138 -218 -195 -29 -27 -80 -72 -114 -100
-34 -29 -61 -56 -60 -60 3 -11 99 -118 106 -118 4 0 67 53 140 119 l134 119
70 -79 69 -80 -44 -42 c-82 -77 -179 -162 -194 -170 -12 -7 -3 -21 42 -73 l57
-64 66 57 c36 32 88 78 114 103 70 66 69 66 121 10 28 -30 52 -48 59 -44 7 4
-3 -9 -22 -29 -19 -20 -42 -39 -50 -42 -9 -3 -25 -18 -36 -34 -10 -16 -22 -28
-26 -26 -10 7 -40 -31 -32 -40 5 -4 2 -5 -4 -1 -7 4 -32 -11 -60 -36 -27 -23
-50 -44 -53 -46 -2 -2 0 -6 6 -10 5 -4 31 -33 57 -64 l48 -57 57 53 c31 29
127 115 212 190 85 76 155 143 155 150 0 8 -28 44 -61 82 -34 38 -97 109 -140
159 -44 49 -88 98 -99 110 -133 140 -170 180 -170 185 0 11 -82 100 -91 100
-5 0 -22 -12 -39 -27z"/>
<path d="M3594 2836 c-45 -20 -99 -71 -128 -121 -21 -34 -26 -57 -26 -107 0
-79 26 -127 134 -250 42 -48 81 -99 86 -113 21 -54 -36 -103 -98 -86 -80 23
-155 95 -207 199 -20 40 -40 70 -44 68 -4 -3 -32 -39 -60 -81 l-52 -75 36 -50
c57 -77 149 -154 238 -200 75 -38 89 -41 163 -42 64 -1 89 3 127 21 112 54
169 205 118 317 -16 35 -111 159 -145 189 -61 54 -73 120 -29 155 31 24 59 22
121 -7 76 -36 175 -164 206 -266 9 -30 28 -15 85 67 51 74 53 79 40 104 -8 15
-52 66 -99 113 -70 70 -102 94 -179 132 -88 45 -97 47 -175 47 -45 -1 -95 -7
-112 -14z"/>
<path d="M9154 2809 c-3 -6 -18 -16 -33 -23 -14 -6 -49 -27 -78 -45 l-52 -34
25 -46 c14 -25 31 -53 38 -61 7 -8 32 -48 56 -88 46 -77 46 -75 -2 -102 -17
-10 -47 -1 -226 71 -159 64 -157 64 -210 30 -26 -16 -75 -46 -110 -67 -34 -21
-59 -40 -55 -44 5 -3 49 -21 98 -39 50 -17 126 -46 170 -62 44 -17 97 -35 118
-41 30 -8 37 -14 31 -27 -50 -113 -53 -177 -14 -253 55 -107 112 -147 208
-148 61 0 124 24 225 84 37 23 79 48 95 56 72 40 182 113 182 121 0 5 -45 82
-100 170 -55 88 -100 162 -100 164 0 2 -15 26 -32 52 -18 26 -40 60 -48 74
-50 88 -166 269 -172 269 -4 0 -10 -5 -14 -11z m140 -598 c31 -49 56 -93 56
-97 0 -20 -127 -84 -165 -84 -17 0 -39 12 -61 34 -29 29 -34 41 -34 79 0 33 6
53 23 71 20 24 103 83 118 85 4 1 32 -39 63 -88z"/>
<path d="M6470 2715 l-54 -55 109 0 109 0 -54 55 c-30 30 -55 55 -55 55 0 0
-25 -25 -55 -55z"/>
<path d="M8185 2294 c-84 -18 -151 -42 -215 -76 -97 -53 -192 -128 -186 -148
14 -47 138 -366 145 -373 5 -5 46 5 92 22 130 46 254 93 258 97 3 3 -46 141
-54 152 -1 1 -36 -11 -78 -27 l-76 -29 -21 57 c-12 31 -26 66 -30 78 -8 20 -4
24 46 42 102 39 221 20 280 -44 58 -62 104 -176 104 -256 0 -44 -22 -110 -50
-149 -28 -39 -133 -90 -201 -97 -39 -4 -77 1 -133 16 -43 12 -81 19 -84 16 -3
-3 -1 -18 5 -33 6 -15 21 -57 34 -94 l23 -68 90 0 c172 0 325 58 424 160 74
75 104 145 109 260 4 75 1 95 -26 175 -32 93 -77 168 -133 222 -76 73 -223
117 -323 97z"/>
<path d="M4806 2282 c-6 -10 -50 -129 -92 -248 -23 -67 -30 -76 -107 -140 -45
-37 -107 -88 -137 -114 -30 -25 -94 -76 -142 -113 -49 -38 -88 -72 -88 -76 0
-4 33 -20 73 -35 39 -15 87 -34 106 -42 35 -16 40 -13 101 46 35 35 179 160
183 160 7 0 19 -64 43 -218 l17 -113 36 -15 c69 -29 182 -67 186 -62 6 5 -18
158 -55 355 -44 238 -49 203 63 490 11 29 19 54 16 56 -2 2 -40 18 -84 35 -44
16 -87 33 -96 37 -10 3 -20 2 -23 -3z"/>
<path d="M7515 2075 c-83 -18 -226 -46 -250 -48 -41 -4 -220 -41 -227 -46 -6
-6 17 -149 25 -158 2 -2 35 3 73 11 38 8 114 22 169 31 55 9 104 18 109 18 4
1 10 -12 12 -28 2 -17 10 -62 18 -100 8 -39 12 -73 8 -77 -4 -3 -50 -14 -102
-23 -52 -9 -123 -21 -158 -27 l-64 -11 7 -36 c23 -123 26 -131 48 -126 88 19
299 56 303 53 2 -2 10 -34 17 -71 l14 -66 -66 -15 c-37 -8 -110 -22 -164 -31
-103 -17 -127 -23 -127 -34 0 -4 5 -34 11 -67 7 -32 12 -65 12 -71 0 -18 15
-17 178 16 79 15 201 39 272 51 70 13 127 28 127 34 0 10 -38 213 -95 511 -19
99 -40 211 -47 250 -15 79 -15 80 -103 60z"/>
<path d="M5386 2064 c-38 -7 -70 -15 -72 -17 -4 -4 -34 -165 -34 -184 0 -18
20 -16 61 6 61 33 148 54 191 47 163 -26 235 -177 177 -373 -36 -119 -120
-193 -221 -193 -65 0 -155 48 -207 110 -23 27 -48 50 -54 50 -15 0 -50 -144
-45 -184 2 -24 15 -36 73 -68 82 -47 152 -67 256 -75 80 -6 164 8 209 35 116
70 167 133 205 255 60 189 38 349 -63 462 -61 68 -127 103 -242 130 -78 18
-142 18 -234 -1z"/>
<path d="M6150 1530 l0 -430 100 0 100 0 0 243 0 242 26 -45 c15 -25 36 -63
48 -85 11 -22 61 -111 111 -198 l89 -157 133 0 133 0 0 430 0 430 -100 0 -100
0 0 -292 c0 -164 -4 -288 -9 -282 -4 5 -25 41 -46 79 -69 127 -84 155 -144
258 -32 56 -60 107 -62 112 -2 6 -19 36 -37 68 l-34 57 -104 0 -104 0 0 -430z"/>
</g>
</svg>
