<?xml version="1.0" standalone="no"?>
<!DOCTYPE svg PUBLIC "-//W3C//DTD SVG 20010904//EN"
 "http://www.w3.org/TR/2001/REC-SVG-20010904/DTD/svg10.dtd">
<svg version="1.0" xmlns="http://www.w3.org/2000/svg"
 width="225.000000pt" height="225.000000pt" viewBox="0 0 225.000000 225.000000"
 preserveAspectRatio="xMidYMid meet">
<metadata>
Created by potrace 1.16, written by Peter Selinger 2001-2019
</metadata>
<g transform="translate(0.000000,225.000000) scale(0.100000,-0.100000)"
fill="#000000" stroke="none">
<path d="M975 2239 c-591 -74 -1031 -633 -966 -1228 67 -620 618 -1069 1230
-1002 459 49 838 366 965 805 95 328 29 702 -172 972 -251 336 -643 504 -1057
453z m360 -98 c206 -43 365 -130 521 -285 207 -207 304 -441 304 -731 0 -290
-97 -524 -304 -731 -207 -207 -441 -304 -731 -304 -290 0 -524 97 -731 304
-207 207 -304 441 -304 731 0 290 97 524 304 731 154 153 314 242 516 285 117
24 307 25 425 0z"/>
<path d="M1049 1771 c-24 -24 -29 -38 -29 -76 0 -38 5 -52 29 -76 24 -24 38
-29 76 -29 38 0 52 5 76 29 24 24 29 38 29 76 0 38 -5 52 -29 76 -24 24 -38
29 -76 29 -38 0 -52 -5 -76 -29z"/>
<path d="M1040 935 l0 -485 85 0 85 0 0 485 0 485 -85 0 -85 0 0 -485z"/>
</g>
</svg>
